<svg xmlns="http://www.w3.org/2000/svg" width="40" height="41" viewBox="0 0 40 41" fill="none">
  <mask id="path-1-inside-1_63_338" fill="white">
    <path d="M25 34.95C24.6834 34.95 24.3667 34.8333 24.1167 34.5833L13.25 23.7167C11.4834 21.95 11.4834 19.05 13.25 17.2833L24.1167 6.41667C24.6001 5.93334 25.4 5.93334 25.8834 6.41667C26.3667 6.9 26.3667 7.7 25.8834 8.18334L15.0167 19.05C14.2167 19.85 14.2167 21.15 15.0167 21.95L25.8834 32.8167C26.3667 33.3 26.3667 34.1 25.8834 34.5833C25.6334 34.8167 25.3167 34.95 25 34.95Z"/>
  </mask>
  <path d="M25 34.95C24.6834 34.95 24.3667 34.8333 24.1167 34.5833L13.25 23.7167C11.4834 21.95 11.4834 19.05 13.25 17.2833L24.1167 6.41667C24.6001 5.93334 25.4 5.93334 25.8834 6.41667C26.3667 6.9 26.3667 7.7 25.8834 8.18334L15.0167 19.05C14.2167 19.85 14.2167 21.15 15.0167 21.95L25.8834 32.8167C26.3667 33.3 26.3667 34.1 25.8834 34.5833C25.6334 34.8167 25.3167 34.95 25 34.95Z" fill="#292D32"/>
  <path d="M24.1167 34.5833L36.1375 22.5625L36.1375 22.5625L24.1167 34.5833ZM13.25 23.7167L1.22923 35.7375L1.22923 35.7375L13.25 23.7167ZM13.25 17.2833L1.22923 5.26252L1.22923 5.26252L13.25 17.2833ZM24.1167 6.41667L36.1375 18.4375L36.1375 18.4375L24.1167 6.41667ZM25.8834 8.18334L13.8626 -3.83748L25.8834 8.18334ZM15.0167 19.05L27.0375 31.0708L15.0167 19.05ZM15.0167 21.95L2.9959 33.9708L2.9959 33.9708L15.0167 21.95ZM25.8834 32.8167L37.9042 20.7959L37.9042 20.7959L25.8834 32.8167ZM25.8834 34.5833L37.4828 47.0113L37.697 46.8113L37.9042 46.6042L25.8834 34.5833ZM25 17.95C28.9487 17.95 33.0314 19.4564 36.1375 22.5625L12.0959 46.6042C15.702 50.2103 20.418 51.95 25 51.95V17.95ZM36.1375 22.5625L25.2709 11.6959L1.22923 35.7375L12.0959 46.6042L36.1375 22.5625ZM25.2709 11.6959C30.1431 16.5681 30.1431 24.4319 25.2709 29.3042L1.22923 5.26252C-7.17635 13.6681 -7.17635 27.3319 1.22923 35.7375L25.2709 11.6959ZM25.2709 29.3042L36.1375 18.4375L12.0959 -5.60415L1.22923 5.26252L25.2709 29.3042ZM36.1375 18.4375C29.982 24.5931 20.0181 24.5931 13.8626 18.4375L37.9042 -5.60415C30.782 -12.7264 19.2181 -12.7264 12.0959 -5.60415L36.1375 18.4375ZM13.8626 18.4375C7.70699 12.2819 7.70699 2.3181 13.8626 -3.83748L37.9042 20.2042C45.0264 13.0819 45.0264 1.5181 37.9042 -5.60415L13.8626 18.4375ZM13.8626 -3.83748L2.9959 7.02919L27.0375 31.0708L37.9042 20.2042L13.8626 -3.83748ZM2.9959 7.02919C-4.44301 14.4681 -4.44301 26.5319 2.9959 33.9708L27.0375 9.92919C32.8764 15.7681 32.8764 25.2319 27.0375 31.0708L2.9959 7.02919ZM2.9959 33.9708L13.8626 44.8375L37.9042 20.7959L27.0375 9.92919L2.9959 33.9708ZM13.8626 44.8375C7.70699 38.6819 7.70699 28.7181 13.8626 22.5625L37.9042 46.6042C45.0264 39.4819 45.0264 27.9181 37.9042 20.7959L13.8626 44.8375ZM14.284 22.1554C16.8292 19.7798 20.5515 17.95 25 17.95V51.95C30.082 51.95 34.4375 49.8535 37.4828 47.0113L14.284 22.1554Z" fill="#343434" mask="url(#path-1-inside-1_63_338)"/>
</svg>