<svg xmlns="http://www.w3.org/2000/svg" width="100" height="100" viewBox="0 0 100 100" fill="none">
  <path d="M50 0C63.2608 0 75.9785 5.26784 85.3553 14.6447C94.7322 24.0215 100 36.7392 100 50C100 63.2608 94.7322 75.9785 85.3553 85.3553C75.9785 94.7322 63.2608 100 50 100C36.7392 100 24.0215 94.7322 14.6447 85.3553C5.26784 75.9785 0 63.2608 0 50C0 36.7392 5.26784 24.0215 14.6447 14.6447C24.0215 5.26784 36.7392 0 50 0ZM43.7714 59.8643L32.6643 48.75C32.2661 48.3518 31.7934 48.036 31.2731 47.8205C30.7529 47.605 30.1953 47.494 29.6321 47.494C29.069 47.494 28.5114 47.605 27.9912 47.8205C27.4709 48.036 26.9982 48.3518 26.6 48.75C25.7958 49.5542 25.344 50.6449 25.344 51.7821C25.344 52.9194 25.7958 54.0101 26.6 54.8143L40.7429 68.9571C41.1399 69.3574 41.6123 69.675 42.1327 69.8918C42.6531 70.1085 43.2113 70.2201 43.775 70.2201C44.3388 70.2201 44.8969 70.1085 45.4173 69.8918C45.9377 69.675 46.4101 69.3574 46.8071 68.9571L76.0929 39.6643C76.4964 39.2677 76.8174 38.7952 77.0374 38.274C77.2573 37.7528 77.3719 37.1932 77.3746 36.6275C77.3772 36.0617 77.2678 35.5011 77.0527 34.9779C76.8376 34.4546 76.521 33.9791 76.1212 33.5789C75.7214 33.1786 75.2463 32.8614 74.7233 32.6457C74.2003 32.43 73.6398 32.3199 73.074 32.3219C72.5083 32.3238 71.9485 32.4378 71.4271 32.6571C70.9056 32.8765 70.4327 33.197 70.0357 33.6L43.7714 59.8643Z" fill="#3CEB6A"/>
</svg>