<svg xmlns="http://www.w3.org/2000/svg" width="8" height="8" viewBox="0 0 8 8" fill="none">
  <path d="M3.9738 7.087C2.31377 7.087 0.964478 5.7377 0.964478 4.07768C0.964478 2.41765 2.31377 1.06836 3.9738 1.06836C5.63382 1.06836 6.98311 2.41765 6.98311 4.07768C6.98311 5.7377 5.63382 7.087 3.9738 7.087ZM3.9738 1.48826C2.54612 1.48826 1.38438 2.65 1.38438 4.07768C1.38438 5.50535 2.54612 6.66709 3.9738 6.66709C5.40147 6.66709 6.56321 5.50535 6.56321 4.07768C6.56321 2.65 5.40147 1.48826 3.9738 1.48826Z" fill="#292D32"/>
  <path d="M3.18154 5.07982C3.12835 5.07982 3.07517 5.06022 3.03318 5.01823C2.95199 4.93705 2.95199 4.80268 3.03318 4.7215L4.61762 3.13706C4.6988 3.05588 4.83317 3.05588 4.91435 3.13706C4.99553 3.21824 4.99553 3.35261 4.91435 3.43379L3.32991 5.01823C3.29072 5.06022 3.23473 5.07982 3.18154 5.07982Z" fill="#292D32"/>
  <path d="M4.76598 5.07982C4.7128 5.07982 4.65961 5.06022 4.61762 5.01823L3.03318 3.43379C2.95199 3.35261 2.95199 3.21824 3.03318 3.13706C3.11436 3.05588 3.24873 3.05588 3.32991 3.13706L4.91435 4.7215C4.99553 4.80268 4.99553 4.93705 4.91435 5.01823C4.87236 5.06022 4.81917 5.07982 4.76598 5.07982Z" fill="#292D32"/>
</svg>