<svg xmlns="http://www.w3.org/2000/svg" width="41" height="40" viewBox="0 0 41 40" fill="none">
  <g clip-path="url(#clip0_107_52828)">
    <path fill-rule="evenodd" clip-rule="evenodd" d="M0 20.1117C0 30.055 7.40221 38.3233 17.0833 40V25.555H11.9583V20H17.0833V15.555C17.0833 10.555 20.3855 7.77833 25.0561 7.77833C26.5355 7.77833 28.1311 8 29.6105 8.22167V13.3333H26.9917C24.4855 13.3333 23.9167 14.555 23.9167 16.1117V20H29.3833L28.4728 25.555H23.9167V40C33.5978 38.3233 41 30.0567 41 20.1117C41 9.05 31.775 0 20.5 0C9.225 0 0 9.05 0 20.1117Z" fill="#434834"/>
  </g>
  <defs>
    <clipPath id="clip0_107_52828">
      <rect width="41" height="40" fill="white"/>
    </clipPath>
  </defs>
</svg>