<svg width="67" height="43" viewBox="0 0 67 43" fill="none" xmlns="http://www.w3.org/2000/svg">
<path d="M48.4062 14.9062C48.4062 23.1387 41.7325 29.8125 33.5 29.8125C25.2675 29.8125 18.5938 23.1387 18.5938 14.9062C18.5938 6.67376 25.2675 0 33.5 0C41.7325 0 48.4062 6.67376 48.4062 14.9062ZM19.0025 14.9062C19.0025 22.913 25.4933 29.4037 33.5 29.4037C41.5067 29.4037 47.9975 22.913 47.9975 14.9062C47.9975 6.89951 41.5067 0.408765 33.5 0.408765C25.4933 0.408765 19.0025 6.89951 19.0025 14.9062Z" fill="#434834"/>
<path d="M18.925 17.2251C18.925 17.2251 20.8115 17.3671 23.184 19.8751C28.1527 25.1278 28.8266 27.5668 33.8786 29.1501C36.2352 29.8886 40.0777 28.109 40.0777 28.109" stroke="#434834" stroke-width="0.378571"/>
<path d="M18.8304 13.3447C19.426 13.2646 20.1074 13.3687 20.8179 13.5931M47.6019 19.2598C45.2809 22.0002 43.6932 22.7866 40.551 23.3768C35.3456 23.8221 31.8982 22.114 27.1117 17.7551" stroke="#434834" stroke-width="0.378571"/>
<path d="M45.1264 12.4126C45.167 12.3304 45.1904 12.2384 45.1904 12.1406V11.2371C45.1904 10.6168 44.6857 10.1121 44.0653 10.1121H43.3237V5.06641C43.3237 4.14667 42.5754 3.39844 41.6557 3.39844H25.4473C24.5276 3.39844 23.7794 4.14672 23.7794 5.06641V10.1121H22.9906C22.3702 10.1121 21.8655 10.6168 21.8655 11.2371V12.1406C21.8655 12.2384 21.889 12.3306 21.9297 12.4128C21.0775 12.6436 20.4485 13.4232 20.4485 14.3475V17.04C20.4485 17.5341 20.8505 17.9361 21.3446 17.9361H23.2043V18.7756C23.2043 19.0735 23.4466 19.3158 23.7445 19.3158H24.2288C24.5267 19.3158 24.7691 19.0735 24.7691 18.7756V17.9361H42.9083V18.7756C42.9083 19.0735 43.1506 19.3158 43.4485 19.3158H43.9329C44.2307 19.3158 44.4731 19.0735 44.4731 18.7756V17.9361H45.7119C46.2061 17.9361 46.6081 17.5341 46.6081 17.04V14.3475C46.6082 13.423 45.979 12.6432 45.1264 12.4126ZM24.1946 5.06641C24.1946 4.37562 24.7565 3.81367 25.4473 3.81367H41.6558C42.3466 3.81367 42.9086 4.37568 42.9086 5.06641V10.0593H40.4491V9.50855C40.4491 9.17607 40.1787 8.90559 39.8461 8.90559H35.5156C35.1831 8.90559 34.9126 9.17607 34.9126 9.50855V10.0593H32.1906V9.50855C32.1906 9.17607 31.9201 8.90559 31.5877 8.90559H27.2571C26.9245 8.90559 26.6541 9.17607 26.6541 9.50855V10.0593H24.1946V5.06641ZM40.0339 9.50855V10.0593H35.3278V9.50855C35.3278 9.40509 35.412 9.32083 35.5155 9.32083H39.8461C39.9496 9.32083 40.0339 9.40509 40.0339 9.50855ZM31.7753 9.50855V10.0593H27.0693V9.50855C27.0693 9.40509 27.1535 9.32083 27.257 9.32083H31.5876C31.6911 9.32083 31.7753 9.40509 31.7753 9.50855ZM22.2808 11.2371C22.2808 10.8458 22.5992 10.5274 22.9906 10.5274H44.0654C44.4568 10.5274 44.7753 10.8458 44.7753 11.2371V12.1406C44.7753 12.252 44.6848 12.3426 44.5734 12.3426H22.4828C22.3714 12.3426 22.2808 12.252 22.2808 12.1406V11.2371ZM24.3539 18.7756C24.3539 18.8445 24.2978 18.9005 24.2289 18.9005H23.7445C23.6756 18.9005 23.6195 18.8445 23.6195 18.7756V17.9732H24.3539V18.7756ZM44.0579 18.7756C44.0579 18.8445 44.0019 18.9005 43.933 18.9005H43.4486C43.3797 18.9005 43.3236 18.8445 43.3236 18.7756V17.9732H44.0579V18.7756ZM46.193 17.0399C46.193 17.3051 45.9773 17.5208 45.7121 17.5208H21.3446C21.0794 17.5208 20.8637 17.3051 20.8637 17.0399V14.3474C20.8637 13.4712 21.5765 12.7583 22.4529 12.7583H24.603H42.4537H44.6037C45.4801 12.7583 46.1929 13.4712 46.1929 14.3474V17.0399H46.193Z" fill="#434834"/>
<path d="M1.45281 41.3052H1.65053V41.1074V37.3628V37.1726V33.5981V33.4004H1.45281H1.26257H1.06486V33.5981V41.1074V41.3052H1.26257H1.45281ZM7.19245 41.1074V41.3052H7.39017H7.5804H7.77812V41.1074V33.5981V33.4004H7.5804H7.39017H7.19245V33.5981V36.9749H4.42149H4.22377V37.1726V37.3628V37.5605H4.42149H7.19245V41.1074Z" fill="#434834" stroke="#434834" stroke-width="0.395433"/>
<path d="M15.962 41.3052H16.0881L16.1413 41.1908L17.2615 38.7803L17.3603 38.5826L17.3604 38.5827L17.3627 38.5777L19.3562 34.2968L21.3496 38.5777L21.3496 38.5777L21.352 38.5826L21.4512 38.781L22.021 39.9855L22.3063 40.5887L22.3868 40.7589H19.3562H19.1585V40.9566V41.1074V41.3052H19.3562H22.7704H22.9907H23.3023L23.1696 41.0233L19.6352 33.5139L19.5818 33.4004H19.4563H19.375L19.3562 33.3601L19.3374 33.4004H19.246H19.1201L19.0669 33.5145L15.5625 41.0238L15.4312 41.3052H15.7417H15.962Z" fill="#434834" stroke="#434834" stroke-width="0.395433"/>
<path d="M38.1908 33.4004H38.0649L38.0116 33.5146L34.7958 40.411L31.5513 33.514L31.4979 33.4004H31.3724H31.1521H30.8405L30.9732 33.6823L34.5076 41.1916L34.561 41.3052H34.6865H34.7795L34.7974 41.3433L34.8152 41.3052H34.9068H35.0327L35.0859 41.1911L38.5903 33.6818L38.7215 33.4004H38.4111H38.1908Z" fill="#434834" stroke="#434834" stroke-width="0.395433"/>
<path d="M46.5724 33.4004H46.3747V33.5981V33.7984V33.9961H46.5724H46.7626H51.2482H51.4459V33.7984V33.5981V33.4004H51.2482H46.5724ZM51.4459 37.1626V36.9648H51.2482H46.7626H46.5724H46.3747V37.1626V37.3628V37.5605H46.5724H46.7626H51.2482H51.4459V37.3628V37.1626ZM51.4459 40.9072V40.7095H51.2482H46.7626H46.5724H46.3747V40.9072V41.1074V41.3052H46.5724H51.2482H51.4459V41.1074V40.9072Z" fill="#434834" stroke="#434834" stroke-width="0.395433"/>
<path d="M65.2723 41.2306L65.3317 41.3052H65.427H65.6004L65.7349 41.4747V41.3052H65.7374H65.9351V41.1074V33.5981V33.4004H65.7374H65.5371H65.3394V33.5981V40.3398L59.8949 33.4753L59.8355 33.4004H59.74H59.5458L59.4121 33.2325V33.4004H59.4095H59.2118V33.5981V41.1074V41.3052H59.4095H59.6098H59.8075V41.1074V34.3643L65.2723 41.2306Z" fill="#434834" stroke="#434834" stroke-width="0.395433"/>
</svg>
