<svg xmlns="http://www.w3.org/2000/svg" width="8" height="8" viewBox="0 0 8 8" fill="none">
  <path d="M1.50659 1.27832H1.99368C2.29601 1.27832 2.53396 1.53866 2.50877 1.83819L2.27642 4.62636C2.23723 5.08266 2.59834 5.47457 3.05744 5.47457H6.03877C6.44187 5.47457 6.79459 5.14425 6.82539 4.74394L6.97655 2.64441C7.01014 2.17972 6.65742 1.8018 6.18993 1.8018H2.57595" stroke="#292D32" stroke-width="0.419905" stroke-miterlimit="10" stroke-linecap="round" stroke-linejoin="round"/>
  <path d="M5.49579 6.87709C5.68905 6.87709 5.84572 6.72042 5.84572 6.52717C5.84572 6.33391 5.68905 6.17725 5.49579 6.17725C5.30254 6.17725 5.14587 6.33391 5.14587 6.52717C5.14587 6.72042 5.30254 6.87709 5.49579 6.87709Z" stroke="#292D32" stroke-width="0.419905" stroke-miterlimit="10" stroke-linecap="round" stroke-linejoin="round"/>
  <path d="M3.25629 6.87709C3.44955 6.87709 3.60621 6.72042 3.60621 6.52717C3.60621 6.33391 3.44955 6.17725 3.25629 6.17725C3.06304 6.17725 2.90637 6.33391 2.90637 6.52717C2.90637 6.72042 3.06304 6.87709 3.25629 6.87709Z" stroke="#292D32" stroke-width="0.419905" stroke-miterlimit="10" stroke-linecap="round" stroke-linejoin="round"/>
  <path d="M3.46619 2.95752H6.82543" stroke="#292D32" stroke-width="0.419905" stroke-miterlimit="10" stroke-linecap="round" stroke-linejoin="round"/>
</svg>