<svg width="152" height="24" viewBox="0 0 152 24" fill="none" xmlns="http://www.w3.org/2000/svg">
<path d="M13.73 3.51001L15.49 7.03001C15.73 7.52001 16.37 7.99001 16.91 8.08001L20.1 8.61001C22.14 8.95001 22.62 10.43 21.15 11.89L18.67 14.37C18.25 14.79 18.02 15.6 18.15 16.18L18.86 19.25C19.42 21.68 18.13 22.62 15.98 21.35L12.99 19.58C12.45 19.26 11.56 19.26 11.01 19.58L8.02003 21.35C5.88003 22.62 4.58003 21.67 5.14003 19.25L5.85003 16.18C5.98003 15.6 5.75003 14.79 5.33003 14.37L2.85003 11.89C1.39003 10.43 1.86003 8.95001 3.90003 8.61001L7.09003 8.08001C7.62003 7.99001 8.26003 7.52001 8.50003 7.03001L10.26 3.51001C11.22 1.60001 12.78 1.60001 13.73 3.51001Z" fill="#EFB727" fill-opacity="0.93" stroke="#EFB727" stroke-width="1.5" stroke-linecap="round" stroke-linejoin="round"/>
<path d="M45.73 3.51001L47.49 7.03001C47.73 7.52001 48.37 7.99001 48.91 8.08001L52.1 8.61001C54.14 8.95001 54.62 10.43 53.15 11.89L50.67 14.37C50.25 14.79 50.02 15.6 50.15 16.18L50.86 19.25C51.42 21.68 50.13 22.62 47.98 21.35L44.99 19.58C44.45 19.26 43.56 19.26 43.01 19.58L40.02 21.35C37.88 22.62 36.58 21.67 37.14 19.25L37.85 16.18C37.98 15.6 37.75 14.79 37.33 14.37L34.85 11.89C33.39 10.43 33.86 8.95001 35.9 8.61001L39.09 8.08001C39.62 7.99001 40.26 7.52001 40.5 7.03001L42.26 3.51001C43.22 1.60001 44.78 1.60001 45.73 3.51001Z" fill="#EFB727" fill-opacity="0.93" stroke="#EFB727" stroke-width="1.5" stroke-linecap="round" stroke-linejoin="round"/>
<path d="M77.73 3.51001L79.49 7.03001C79.73 7.52001 80.37 7.99001 80.91 8.08001L84.1 8.61001C86.14 8.95001 86.62 10.43 85.15 11.89L82.67 14.37C82.25 14.79 82.02 15.6 82.15 16.18L82.86 19.25C83.42 21.68 82.13 22.62 79.98 21.35L76.99 19.58C76.45 19.26 75.56 19.26 75.01 19.58L72.02 21.35C69.88 22.62 68.58 21.67 69.14 19.25L69.85 16.18C69.98 15.6 69.75 14.79 69.33 14.37L66.85 11.89C65.39 10.43 65.86 8.95001 67.9 8.61001L71.09 8.08001C71.62 7.99001 72.26 7.52001 72.5 7.03001L74.26 3.51001C75.22 1.60001 76.78 1.60001 77.73 3.51001Z" fill="#EFB727" fill-opacity="0.93" stroke="#EFB727" stroke-width="1.5" stroke-linecap="round" stroke-linejoin="round"/>
<path d="M109.73 3.51001L111.49 7.03001C111.73 7.52001 112.37 7.99001 112.91 8.08001L116.1 8.61001C118.14 8.95001 118.62 10.43 117.15 11.89L114.67 14.37C114.25 14.79 114.02 15.6 114.15 16.18L114.86 19.25C115.42 21.68 114.13 22.62 111.98 21.35L108.99 19.58C108.45 19.26 107.56 19.26 107.01 19.58L104.02 21.35C101.88 22.62 100.58 21.67 101.14 19.25L101.85 16.18C101.98 15.6 101.75 14.79 101.33 14.37L98.85 11.89C97.39 10.43 97.86 8.95001 99.9 8.61001L103.09 8.08001C103.62 7.99001 104.26 7.52001 104.5 7.03001L106.26 3.51001C107.22 1.60001 108.78 1.60001 109.73 3.51001Z" fill="#EFB727" fill-opacity="0.93" stroke="#EFB727" stroke-width="1.5" stroke-linecap="round" stroke-linejoin="round"/>
<path d="M141.73 3.51001L143.49 7.03001C143.73 7.52001 144.37 7.99001 144.91 8.08001L148.1 8.61001C150.14 8.95001 150.62 10.43 149.15 11.89L146.67 14.37C146.25 14.79 146.02 15.6 146.15 16.18L146.86 19.25C147.42 21.68 146.13 22.62 143.98 21.35L140.99 19.58C140.45 19.26 139.56 19.26 139.01 19.58L136.02 21.35C133.88 22.62 132.58 21.67 133.14 19.25L133.85 16.18C133.98 15.6 133.75 14.79 133.33 14.37L130.85 11.89C129.39 10.43 129.86 8.95001 131.9 8.61001L135.09 8.08001C135.62 7.99001 136.26 7.52001 136.5 7.03001L138.26 3.51001C139.22 1.60001 140.78 1.60001 141.73 3.51001Z" fill="#EFB727" fill-opacity="0.93" stroke="#EFB727" stroke-width="1.5" stroke-linecap="round" stroke-linejoin="round"/>
</svg>
