<svg xmlns="http://www.w3.org/2000/svg" width="20" height="20" viewBox="0 0 20 20" fill="none">
  <path d="M14.7835 18.9583H5.21683C3.14183 18.9583 1.4585 17.275 1.4585 15.2V9.59167C1.4585 7.51667 3.14183 5.83333 5.21683 5.83333H14.7835C16.8585 5.83333 18.5418 7.51667 18.5418 9.59167V10.7917C18.5418 11.1333 18.2585 11.4167 17.9168 11.4167H16.2335C15.9418 11.4167 15.6752 11.525 15.4835 11.725L15.4752 11.7333C15.2418 11.9583 15.1335 12.2666 15.1585 12.5833C15.2085 13.1333 15.7335 13.575 16.3335 13.575H17.9168C18.2585 13.575 18.5418 13.8583 18.5418 14.2V15.1916C18.5418 17.275 16.8585 18.9583 14.7835 18.9583ZM5.21683 7.08333C3.8335 7.08333 2.7085 8.20834 2.7085 9.59167V15.2C2.7085 16.5833 3.8335 17.7083 5.21683 17.7083H14.7835C16.1668 17.7083 17.2918 16.5833 17.2918 15.2V14.8333H16.3335C15.0752 14.8333 14.0085 13.9 13.9085 12.7C13.8418 12.0167 14.0918 11.3417 14.5918 10.85C15.0252 10.4083 15.6085 10.1667 16.2335 10.1667H17.2918V9.59167C17.2918 8.20834 16.1668 7.08333 14.7835 7.08333H5.21683Z" fill="white"/>
  <path d="M2.0835 10.9667C1.74183 10.9667 1.4585 10.6833 1.4585 10.3417V6.53339C1.4585 5.29172 2.24183 4.16668 3.40016 3.72501L10.0168 1.22501C10.7002 0.966676 11.4585 1.05838 12.0502 1.47505C12.6502 1.89172 13.0002 2.56671 13.0002 3.29171V6.45837C13.0002 6.80003 12.7168 7.08337 12.3752 7.08337C12.0335 7.08337 11.7502 6.80003 11.7502 6.45837V3.29171C11.7502 2.97504 11.6002 2.68337 11.3335 2.50003C11.0668 2.3167 10.7502 2.27503 10.4502 2.3917L3.8335 4.8917C3.1585 5.15003 2.70016 5.80839 2.70016 6.53339V10.3417C2.7085 10.6917 2.42516 10.9667 2.0835 10.9667Z" fill="white"/>
  <path d="M16.3331 14.8333C15.0747 14.8333 14.0081 13.8999 13.9081 12.6999C13.8414 12.0083 14.0914 11.3333 14.5914 10.8416C15.0164 10.4083 15.5997 10.1666 16.2247 10.1666H17.9581C18.7831 10.1916 19.4164 10.8416 19.4164 11.6416V13.3583C19.4164 14.1583 18.7831 14.8083 17.9831 14.8333H16.3331ZM17.9414 11.4166H16.2331C15.9414 11.4166 15.6747 11.525 15.4831 11.725C15.2414 11.9583 15.1247 12.2749 15.1581 12.5916C15.2081 13.1416 15.7331 13.5833 16.3331 13.5833H17.9664C18.0747 13.5833 18.1747 13.4833 18.1747 13.3583V11.6416C18.1747 11.5166 18.0747 11.425 17.9414 11.4166Z" fill="white"/>
  <path d="M11.6668 10.625H5.8335C5.49183 10.625 5.2085 10.3417 5.2085 10C5.2085 9.65833 5.49183 9.375 5.8335 9.375H11.6668C12.0085 9.375 12.2918 9.65833 12.2918 10C12.2918 10.3417 12.0085 10.625 11.6668 10.625Z" fill="white"/>
</svg>