<svg width="86" height="65" viewBox="0 0 86 65" fill="none" xmlns="http://www.w3.org/2000/svg">
<path d="M66.9062 23.9062C66.9062 37.1093 56.2031 47.8125 43 47.8125C29.7969 47.8125 19.0938 37.1093 19.0938 23.9062C19.0938 10.7032 29.7969 0 43 0C56.2031 0 66.9062 10.7032 66.9062 23.9062ZM19.7493 23.9062C19.7493 36.7472 30.159 47.1569 43 47.1569C55.841 47.1569 66.2507 36.7472 66.2507 23.9062C66.2507 11.0653 55.841 0.655565 43 0.655565C30.159 0.655565 19.7493 11.0653 19.7493 23.9062Z" fill="#434834"/>
<path d="M19.625 27.625C19.625 27.625 22.6505 27.8527 26.4554 31.875C34.4241 40.2991 35.5049 44.2108 43.6071 46.75C47.3865 47.9344 53.5491 45.0804 53.5491 45.0804" stroke="#434834" stroke-width="0.607143"/>
<path d="M19.4731 21.4018C20.4282 21.2735 21.5211 21.4404 22.6606 21.8004M65.616 30.8885C61.8937 35.2834 59.3473 36.5446 54.308 37.4911C45.9597 38.2054 40.4309 35.4659 32.7544 28.4752" stroke="#434834" stroke-width="0.607143"/>
<path d="M61.6462 19.907C61.7112 19.7751 61.7488 19.6274 61.7488 19.4707V18.0217C61.7488 17.0268 60.9394 16.2174 59.9444 16.2174H58.755V8.12524C58.755 6.65018 57.555 5.4502 56.0799 5.4502H30.0854C28.6103 5.4502 27.4103 6.65028 27.4103 8.12524V16.2174H26.1453C25.1504 16.2174 24.341 17.0268 24.341 18.0217V19.4707C24.341 19.6274 24.3786 19.7753 24.4438 19.9072C23.0771 20.2773 22.0684 21.5277 22.0684 23.01V27.3281C22.0684 28.1206 22.713 28.7654 23.5056 28.7654H26.488V30.1118C26.488 30.5895 26.8766 30.978 27.3544 30.978H28.1312C28.6089 30.978 28.9976 30.5895 28.9976 30.1118V28.7654H58.0888V30.1118C58.0888 30.5895 58.4774 30.978 58.9551 30.978H59.732C60.2097 30.978 60.5983 30.5895 60.5983 30.1118V28.7654H62.5852C63.3777 28.7654 64.0224 28.1206 64.0224 27.3281V23.01C64.0227 21.5273 63.0135 20.2766 61.6462 19.907ZM28.0763 8.12524C28.0763 7.01738 28.9775 6.11614 30.0854 6.11614H56.08C57.188 6.11614 58.0892 7.01747 58.0892 8.12524V16.1326H54.1448V15.2494C54.1448 14.7162 53.7111 14.2824 53.1778 14.2824H46.2326C45.6994 14.2824 45.2656 14.7162 45.2656 15.2494V16.1326H40.9V15.2494C40.9 14.7162 40.4662 14.2824 39.9331 14.2824H32.9878C32.4545 14.2824 32.0208 14.7162 32.0208 15.2494V16.1326H28.0763V8.12524ZM53.4789 15.2494V16.1326H45.9314V15.2494C45.9314 15.0835 46.0665 14.9484 46.2325 14.9484H53.1777C53.3437 14.9484 53.4789 15.0835 53.4789 15.2494ZM40.2339 15.2494V16.1326H32.6866V15.2494C32.6866 15.0835 32.8216 14.9484 32.9877 14.9484H39.933C40.0989 14.9484 40.2339 15.0835 40.2339 15.2494ZM25.007 18.0217C25.007 17.394 25.5177 16.8834 26.1454 16.8834H59.9446C60.5723 16.8834 61.0831 17.394 61.0831 18.0217V19.4707C61.0831 19.6493 60.9379 19.7946 60.7592 19.7946H25.3309C25.1522 19.7946 25.007 19.6493 25.007 19.4707V18.0217ZM28.3317 30.1117C28.3317 30.2221 28.2418 30.312 28.1313 30.312H27.3545C27.2439 30.312 27.154 30.2221 27.154 30.1117V28.8248H28.3317V30.1117ZM59.9326 30.1117C59.9326 30.2221 59.8427 30.312 59.7322 30.312H58.9553C58.8448 30.312 58.7549 30.2221 58.7549 30.1117V28.8248H59.9326V30.1117ZM63.3567 27.328C63.3567 27.7534 63.0108 28.0993 62.5854 28.0993H23.5056C23.0802 28.0993 22.7343 27.7534 22.7343 27.328V23.0099C22.7343 21.6046 23.8775 20.4613 25.2829 20.4613H28.7312H57.3597H60.8079C62.2133 20.4613 63.3566 21.6045 63.3566 23.0099V27.328H63.3567Z" fill="#434834"/>
<path d="M6.11725 63.6288H6.36725V63.3788V58.644V58.4034V53.8838V53.6338H6.11725H5.87671H5.62671V53.8838V63.3788V63.6288H5.87671H6.11725ZM13.3747 63.3788V63.6288H13.6247H13.8652H14.1152V63.3788V53.8838V53.6338H13.8652H13.6247H13.3747V53.8838V58.1534H9.87096H9.62096V58.4034V58.644V58.894H9.87096H13.3747V63.3788Z" fill="#434834" stroke="#434834" stroke-width="0.5"/>
<path d="M22.6435 63.6288H22.803L22.8702 63.4842L24.2866 60.4364L24.4116 60.1864L24.4117 60.1864L24.4147 60.1801L26.9353 54.7672L29.4559 60.1801L29.4558 60.1801L29.4589 60.1864L29.5843 60.4371L30.3047 61.9602L30.6655 62.723L30.7673 62.9381H26.9353H26.6853V63.1881V63.3788V63.6288H26.9353H31.2523H31.5309H31.9248L31.7571 63.2724L27.2881 53.7773L27.2205 53.6338H27.0619H26.959L26.9353 53.5827L26.9115 53.6338H26.796H26.6368L26.5695 53.7781L22.1384 63.2731L21.9724 63.6288H22.365H22.6435Z" fill="#434834" stroke="#434834" stroke-width="0.5"/>
<path d="M48.931 53.6338H48.7718L48.7044 53.7781L44.6383 62.4982L40.5357 53.7774L40.4682 53.6338H40.3095H40.031H39.637L39.8048 53.9903L44.2738 63.4853L44.3414 63.6288H44.5H44.6176L44.6403 63.6771L44.6628 63.6288H44.7785H44.9377L45.0051 63.4846L49.4361 53.9895L49.6021 53.6338H49.2095H48.931Z" fill="#434834" stroke="#434834" stroke-width="0.5"/>
<path d="M57.7095 53.6338H57.4595V53.8838V54.137V54.387H57.7095H57.95H63.6217H63.8717V54.137V53.8838V53.6338H63.6217H57.7095ZM63.8717 58.3908V58.1408H63.6217H57.95H57.7095H57.4595V58.3908V58.644V58.894H57.7095H57.95H63.6217H63.8717V58.644V58.3908ZM63.8717 63.1256V62.8756H63.6217H57.95H57.7095H57.4595V63.1256V63.3788V63.6288H57.7095H63.6217H63.8717V63.3788V63.1256Z" fill="#434834" stroke="#434834" stroke-width="0.5"/>
<path d="M79.5349 63.5345L79.61 63.6288H79.7305H79.9498L80.1198 63.8431V63.6288H80.123H80.373V63.3788V53.8838V53.6338H80.123H79.8698H79.6198V53.8838V62.4081L72.7355 53.7284L72.6604 53.6338H72.5396H72.294L72.125 53.4214V53.6338H72.1218H71.8718V53.8838V63.3788V63.6288H72.1218H72.375H72.625V63.3788V54.8526L79.5349 63.5345Z" fill="#434834" stroke="#434834" stroke-width="0.5"/>
</svg>
